name rise36.2859peak64.2979fall75.1499.mot
datacolumns 19
datarows 23
range 1.94667700000000 1.98332900000000
endheader
time	ground_force1_vx	ground_force1_vy	ground_force1_vz	ground_force1_px	ground_force1_py	ground_force1_pz	ground_force2_vx	ground_force2_vy	ground_force2_vz	ground_force2_px	ground_force2_py	ground_force2_pz	ground_torque1_x	ground_torque1_y	ground_torque1_z	ground_torque2_x	ground_torque2_y	ground_torque2_z	
1.94667700000000	-10.58051000000000	42.58487600000000	-13.79744500000000	0.35718200000000	0.00000000000000	0.05016700000000	-59.40145300000000	763.55724499999997	-46.92624800000000	0.16976700000000	0.00000000000000	-0.11373500000000	0.00000000000000	-11.10314900000000	0.00000000000000	0.00000000000000	-27.55601400000000	0.00000000000000	
1.94832800000000	-11.55185200000000	49.79298400000000	-15.51636800000000	0.36119900000000	0.00000000000000	0.05162800000000	-60.53263000000000	760.60837800000002	-46.53448000000000	0.16858400000000	0.00000000000000	-0.11361200000000	0.00000000000000	-12.55716200000000	0.00000000000000	0.00000000000000	-27.62669400000000	0.00000000000000	
1.94999400000000	-12.31311600000000	57.06561700000000	-17.08073200000000	0.36506700000000	0.00000000000000	0.05295800000000	-61.67368200000000	757.56395199999997	-46.12884800000000	0.16739800000000	0.00000000000000	-0.11348700000000	0.00000000000000	-13.90373900000000	0.00000000000000	0.00000000000000	-27.69791700000000	0.00000000000000	
1.95166400000000	-12.83713800000000	64.30890900000000	-18.45489500000000	0.36879800000000	0.00000000000000	0.05417600000000	-62.82261900000000	754.41982299999995	-45.70892700000000	0.16621100000000	0.00000000000000	-0.11335900000000	0.00000000000000	-15.11283700000000	0.00000000000000	0.00000000000000	-27.76912500000000	0.00000000000000	
1.95333100000000	-13.10905400000000	71.45343400000000	-19.61558300000000	0.37240100000000	0.00000000000000	0.05529800000000	-63.97736900000000	751.17176400000005	-45.27431700000000	0.16502300000000	0.00000000000000	-0.11322800000000	0.00000000000000	-16.16392700000000	0.00000000000000	0.00000000000000	-27.83975200000000	0.00000000000000	
1.95499000000000	-13.12600400000000	78.45624599999999	-20.55202100000000	0.37588300000000	0.00000000000000	0.05633500000000	-65.13577800000000	747.81547999999998	-44.82464800000000	0.16383600000000	0.00000000000000	-0.11309500000000	0.00000000000000	-17.04630700000000	0.00000000000000	0.00000000000000	-27.90921700000000	0.00000000000000	
1.95665600000000	-12.89590600000000	85.30039499999999	-21.26502300000000	0.37925200000000	0.00000000000000	0.05729800000000	-66.29561699999999	744.34662300000002	-44.35958200000000	0.16265100000000	0.00000000000000	-0.11295900000000	0.00000000000000	-17.75855800000000	0.00000000000000	0.00000000000000	-27.97693000000000	0.00000000000000	
1.95832200000000	-12.43554800000000	91.99237700000000	-21.76528300000000	0.38251200000000	0.00000000000000	0.05819600000000	-67.45458300000000	740.76080899999999	-43.87881100000000	0.16146900000000	0.00000000000000	-0.11282000000000	0.00000000000000	-18.30733300000000	0.00000000000000	0.00000000000000	-28.04229600000000	0.00000000000000	
1.95999700000000	-11.76827900000000	98.55809400000000	-22.07115100000000	0.38566900000000	0.00000000000000	0.05903600000000	-68.61030500000000	737.05363100000000	-43.38206700000000	0.16029100000000	0.00000000000000	-0.11267800000000	0.00000000000000	-18.70567800000000	0.00000000000000	0.00000000000000	-28.10471000000000	0.00000000000000	
1.96166300000000	-10.92155800000000	105.03790499999999	-22.20616700000000	0.38872600000000	0.00000000000000	0.05982400000000	-69.76035100000000	733.22068200000001	-42.86912000000000	0.15911800000000	0.00000000000000	-0.11253300000000	0.00000000000000	-18.97111900000000	0.00000000000000	0.00000000000000	-28.16356500000000	0.00000000000000	
1.96332500000000	-9.92457800000000	111.48135100000000	-22.19659100000000	0.39168800000000	0.00000000000000	0.06056700000000	-70.90222799999999	729.25756600000000	-42.33978300000000	0.15795100000000	0.00000000000000	-0.11238500000000	0.00000000000000	-19.12370600000000	0.00000000000000	0.00000000000000	-28.21825000000000	0.00000000000000	
1.96498800000000	-8.80616000000000	117.94201800000000	-22.06914700000000	0.39455800000000	0.00000000000000	0.06126700000000	-72.03339200000001	725.15992500000004	-41.79391000000000	0.15679200000000	0.00000000000000	-0.11223400000000	0.00000000000000	-19.18417200000000	0.00000000000000	0.00000000000000	-28.26815100000000	0.00000000000000	
1.96666300000000	-7.59302700000000	124.47295000000000	-21.84910500000000	0.39733800000000	0.00000000000000	0.06193100000000	-73.15125000000000	720.92345200000000	-41.23140200000000	0.15564000000000	0.00000000000000	-0.11208000000000	0.00000000000000	-19.17235800000000	0.00000000000000	0.00000000000000	-28.31265800000000	0.00000000000000	
1.96832800000000	-6.30852600000000	131.12285499999999	-21.55880600000000	0.40003200000000	0.00000000000000	0.06255900000000	-74.25316800000000	716.54391599999997	-40.65220900000000	0.15449800000000	0.00000000000000	-0.11192300000000	0.00000000000000	-19.10595800000000	0.00000000000000	0.00000000000000	-28.35116000000000	0.00000000000000	
1.96999300000000	-4.97182700000000	137.93326999999999	-21.21666600000000	0.40264200000000	0.00000000000000	0.06315700000000	-75.33647499999999	712.01718000000005	-40.05632600000000	0.15336700000000	0.00000000000000	-0.11176300000000	0.00000000000000	-18.99965000000000	0.00000000000000	0.00000000000000	-28.38304900000000	0.00000000000000	
1.97166300000000	-3.59757500000000	144.93672000000001	-20.83664600000000	0.40516900000000	0.00000000000000	0.06372600000000	-76.39847300000000	707.33922900000005	-39.44380300000000	0.15224700000000	0.00000000000000	-0.11160000000000	0.00000000000000	-18.86459100000000	0.00000000000000	0.00000000000000	-28.40772300000000	0.00000000000000	
1.97333100000000	-2.19592900000000	152.15585500000000	-20.42814600000000	0.40761500000000	0.00000000000000	0.06426900000000	-77.43644000000000	702.50618299999996	-38.81473700000000	0.15113900000000	0.00000000000000	-0.11143400000000	0.00000000000000	-18.70828300000000	0.00000000000000	0.00000000000000	-28.42458800000000	0.00000000000000	
1.97499400000000	-0.77292600000000	159.60341900000000	-19.99625800000000	0.40998300000000	0.00000000000000	0.06478800000000	-78.44763399999999	697.51432699999998	-38.16927800000000	0.15004400000000	0.00000000000000	-0.11126400000000	0.00000000000000	-18.53471300000000	0.00000000000000	0.00000000000000	-28.43305500000000	0.00000000000000	
1.97666000000000	0.66891200000000	167.28293099999999	-19.54229400000000	0.41227300000000	0.00000000000000	0.06528400000000	-79.42930800000001	692.36013100000002	-37.50763100000000	0.14896300000000	0.00000000000000	-0.11109200000000	0.00000000000000	-18.34475300000000	0.00000000000000	0.00000000000000	-28.43254500000000	0.00000000000000	
1.97832400000000	2.12984100000000	175.18987999999999	-19.06449100000000	0.41448700000000	0.00000000000000	0.06576000000000	-80.37871000000000	687.04026999999996	-36.83005100000000	0.14789700000000	0.00000000000000	-0.11091600000000	0.00000000000000	-18.13670500000000	0.00000000000000	0.00000000000000	-28.42249100000000	0.00000000000000	
1.97999700000000	3.61208000000000	183.31324799999999	-18.55882000000000	0.41662500000000	0.00000000000000	0.06621600000000	-81.29309300000000	681.55164900000000	-36.13684600000000	0.14684700000000	0.00000000000000	-0.11073700000000	0.00000000000000	-17.90694800000000	0.00000000000000	0.00000000000000	-28.40233900000000	0.00000000000000	
1.98166200000000	5.11900800000000	191.63720300000000	-18.01980800000000	0.41869000000000	0.00000000000000	0.06665400000000	-82.16971900000000	675.89142000000004	-35.42838000000000	0.14581300000000	0.00000000000000	-0.11055500000000	0.00000000000000	-17.65061200000000	0.00000000000000	0.00000000000000	-28.37154600000000	0.00000000000000	
1.98332900000000	6.65443600000000	200.14277799999999	-17.44132000000000	0.42068100000000	0.00000000000000	0.06707500000000	-83.00587100000000	670.05700100000001	-34.70506600000000	0.14479700000000	0.00000000000000	-0.11036900000000	0.00000000000000	-17.36222300000000	0.00000000000000	0.00000000000000	-28.32958700000000	0.00000000000000	
